<svg width="12" height="10" viewBox="0 0 12 10" fill="none" xmlns="http://www.w3.org/2000/svg">
<path fill-rule="evenodd" clip-rule="evenodd" d="M11.2208 6.97659L7.7181 0.988811C7.36646 0.3792 6.71104 0.000832431 6.00223 1.36306e-06C5.29335 -0.000827022 4.6377 0.375979 4.28168 0.988836L0.777713 6.97881C0.414376 7.58974 0.406156 8.35527 0.758088 8.9796C1.11031 9.60445 1.76983 9.99331 2.4872 9.99914L9.50613 9.99917C10.231 9.99212 10.8892 9.60446 11.2414 8.98016C11.5931 8.35661 11.5853 7.59278 11.2208 6.97659ZM1.63904 7.48685L5.14561 1.49246C5.32319 1.18677 5.64888 0.99959 6.00106 1C6.3532 1.00041 6.67878 1.18837 6.85342 1.49111L10.3589 7.48363C10.5426 7.79425 10.5465 8.17664 10.3704 8.48884C10.1941 8.80148 9.86434 8.99565 9.50126 8.9992L2.49127 8.99916C2.13597 8.99625 1.80561 8.80147 1.62922 8.48855C1.45302 8.17597 1.45713 7.79273 1.63904 7.48685ZM6.00017 7.9992C6.2764 7.9992 6.50033 7.77534 6.50033 7.4992C6.50033 7.22306 6.2764 6.9992 6.00017 6.9992C5.72394 6.9992 5.5 7.22306 5.5 7.4992C5.5 7.77534 5.72394 7.9992 6.00017 7.9992ZM6.50182 2.9992H5.50149V6.4992H6.50182V2.9992Z" fill="#EB5757"/>
</svg>
