<svg width="110" height="25" viewBox="0 0 110 25" fill="none" xmlns="http://www.w3.org/2000/svg">
<path d="M22.2 14.0113H21.6V12.8113C21.6 11.8566 21.2207 10.9409 20.5456 10.2658C19.8705 9.59062 18.9548 9.21134 18 9.21134H13.2V6.47846C13.6575 6.2143 14.0151 5.80655 14.2173 5.31844C14.4195 4.83033 14.455 4.28915 14.3182 3.77883C14.1815 3.26851 13.8802 2.81757 13.461 2.49595C13.0419 2.17433 12.5283 2 12 2C11.4717 2 10.9581 2.17433 10.539 2.49595C10.1198 2.81757 9.81852 3.26851 9.68178 3.77883C9.54504 4.28915 9.58051 4.83033 9.78269 5.31844C9.98487 5.80655 10.3425 6.2143 10.8 6.47846V9.21134H6C5.04522 9.21134 4.12955 9.59062 3.45442 10.2658C2.77928 10.9409 2.4 11.8566 2.4 12.8113V14.0113H1.8C1.32261 14.0113 0.864773 14.201 0.527208 14.5385C0.189642 14.8761 0 15.334 0 15.8113C0 16.2887 0.189642 16.7466 0.527208 17.0841C0.864773 17.4217 1.32261 17.6113 1.8 17.6113H2.4V18.8113C2.4 19.7661 2.77928 20.6818 3.45442 21.3569C4.12955 22.0321 5.04522 22.4113 6 22.4113H18C18.9548 22.4113 19.8705 22.0321 20.5456 21.3569C21.2207 20.6818 21.6 19.7661 21.6 18.8113V17.6113H22.2C22.6774 17.6113 23.1352 17.4217 23.4728 17.0841C23.8104 16.7466 24 16.2887 24 15.8113C24 15.334 23.8104 14.8761 23.4728 14.5385C23.1352 14.201 22.6774 14.0113 22.2 14.0113ZM9.6 15.8113C9.6 16.1673 9.49443 16.5154 9.29665 16.8114C9.09886 17.1074 8.81774 17.3381 8.48883 17.4743C8.15992 17.6106 7.798 17.6462 7.44884 17.5768C7.09967 17.5073 6.77894 17.3359 6.52721 17.0841C6.27547 16.8324 6.10404 16.5117 6.03459 16.1625C5.96513 15.8133 6.00078 15.4514 6.13702 15.1225C6.27325 14.7936 6.50397 14.5125 6.79997 14.3147C7.09598 14.1169 7.44399 14.0113 7.8 14.0113C8.27739 14.0113 8.73523 14.201 9.07279 14.5385C9.41036 14.8761 9.6 15.334 9.6 15.8113ZM18 15.8113C18 16.1673 17.8944 16.5154 17.6966 16.8114C17.4989 17.1074 17.2177 17.3381 16.8888 17.4743C16.5599 17.6106 16.198 17.6462 15.8488 17.5768C15.4997 17.5073 15.1789 17.3359 14.9272 17.0841C14.6755 16.8324 14.504 16.5117 14.4346 16.1625C14.3651 15.8133 14.4008 15.4514 14.537 15.1225C14.6733 14.7936 14.904 14.5125 15.2 14.3147C15.496 14.1169 15.844 14.0113 16.2 14.0113C16.6774 14.0113 17.1352 14.201 17.4728 14.5385C17.8104 14.8761 18 15.334 18 15.8113Z" fill="#FF6E40"/>
<path d="M33.4854 21V8.20312H37.6689C39.0576 8.20312 40.1006 8.49023 40.7979 9.06445C41.501 9.63867 41.8525 10.4883 41.8525 11.6133C41.8525 12.2109 41.6826 12.7412 41.3428 13.2041C41.0029 13.6611 40.54 14.0156 39.9541 14.2676C40.6455 14.4609 41.1904 14.8301 41.5889 15.375C41.9932 15.9141 42.1953 16.5586 42.1953 17.3086C42.1953 18.457 41.8232 19.3594 41.0791 20.0156C40.335 20.6719 39.2832 21 37.9238 21H33.4854ZM35.1729 15.0146V19.6201H37.959C38.7441 19.6201 39.3623 19.418 39.8135 19.0137C40.2705 18.6035 40.499 18.041 40.499 17.3262C40.499 15.7852 39.6611 15.0146 37.9854 15.0146H35.1729ZM35.1729 13.6611H37.7217C38.46 13.6611 39.0488 13.4766 39.4883 13.1074C39.9336 12.7383 40.1562 12.2373 40.1562 11.6045C40.1562 10.9014 39.9512 10.3916 39.541 10.0752C39.1309 9.75293 38.5068 9.5918 37.6689 9.5918H35.1729V13.6611ZM44.0146 16.1572C44.0146 15.2256 44.1963 14.3877 44.5596 13.6436C44.9287 12.8994 45.4385 12.3252 46.0889 11.9209C46.7451 11.5166 47.4922 11.3145 48.3301 11.3145C49.625 11.3145 50.6709 11.7627 51.4678 12.6592C52.2705 13.5557 52.6719 14.748 52.6719 16.2363V16.3506C52.6719 17.2764 52.4932 18.1084 52.1357 18.8467C51.7842 19.5791 51.2773 20.1504 50.6152 20.5605C49.959 20.9707 49.2031 21.1758 48.3477 21.1758C47.0586 21.1758 46.0127 20.7275 45.21 19.8311C44.4131 18.9346 44.0146 17.748 44.0146 16.2715V16.1572ZM45.6494 16.3506C45.6494 17.4053 45.8926 18.252 46.3789 18.8906C46.8711 19.5293 47.5273 19.8486 48.3477 19.8486C49.1738 19.8486 49.8301 19.5264 50.3164 18.8818C50.8027 18.2314 51.0459 17.3232 51.0459 16.1572C51.0459 15.1143 50.7969 14.2705 50.2988 13.626C49.8066 12.9756 49.1504 12.6504 48.3301 12.6504C47.5273 12.6504 46.8799 12.9697 46.3877 13.6084C45.8955 14.2471 45.6494 15.1611 45.6494 16.3506ZM56.917 9.1875V11.4902H58.6924V12.7471H56.917V18.6445C56.917 19.0254 56.9961 19.3125 57.1543 19.5059C57.3125 19.6934 57.582 19.7871 57.9629 19.7871C58.1504 19.7871 58.4082 19.752 58.7363 19.6816V21C58.3086 21.1172 57.8926 21.1758 57.4883 21.1758C56.7617 21.1758 56.2139 20.9561 55.8447 20.5166C55.4756 20.0771 55.291 19.4531 55.291 18.6445V12.7471H53.5596V11.4902H55.291V9.1875H56.917ZM66.1367 18.4775C66.1367 18.0381 65.9697 17.6982 65.6357 17.458C65.3076 17.2119 64.7305 17.001 63.9043 16.8252C63.084 16.6494 62.4307 16.4385 61.9443 16.1924C61.4639 15.9463 61.1064 15.6533 60.8721 15.3135C60.6436 14.9736 60.5293 14.5693 60.5293 14.1006C60.5293 13.3213 60.8574 12.6621 61.5137 12.123C62.1758 11.584 63.0195 11.3145 64.0449 11.3145C65.123 11.3145 65.9961 11.5928 66.6641 12.1494C67.3379 12.7061 67.6748 13.418 67.6748 14.2852H66.04C66.04 13.8398 65.8496 13.4561 65.4688 13.1338C65.0938 12.8115 64.6191 12.6504 64.0449 12.6504C63.4531 12.6504 62.9902 12.7793 62.6562 13.0371C62.3223 13.2949 62.1553 13.6318 62.1553 14.0479C62.1553 14.4404 62.3105 14.7363 62.6211 14.9355C62.9316 15.1348 63.4912 15.3252 64.2998 15.5068C65.1143 15.6885 65.7734 15.9053 66.2773 16.1572C66.7812 16.4092 67.1533 16.7139 67.3936 17.0713C67.6396 17.4229 67.7627 17.8535 67.7627 18.3633C67.7627 19.2129 67.4229 19.8955 66.7432 20.4111C66.0635 20.9209 65.1816 21.1758 64.0977 21.1758C63.3359 21.1758 62.6621 21.041 62.0762 20.7715C61.4902 20.502 61.0303 20.127 60.6963 19.6465C60.3682 19.1602 60.2041 18.6357 60.2041 18.0732H61.8301C61.8594 18.6182 62.0762 19.0518 62.4805 19.374C62.8906 19.6904 63.4297 19.8486 64.0977 19.8486C64.7129 19.8486 65.2051 19.7256 65.5742 19.4795C65.9492 19.2275 66.1367 18.8936 66.1367 18.4775ZM84.0137 16.9395C83.8555 18.293 83.3545 19.3389 82.5107 20.0771C81.6729 20.8096 80.5566 21.1758 79.1621 21.1758C77.6504 21.1758 76.4375 20.6338 75.5234 19.5498C74.6152 18.4658 74.1611 17.0156 74.1611 15.1992V13.9688C74.1611 12.7793 74.3721 11.7334 74.7939 10.8311C75.2217 9.92871 75.8252 9.2373 76.6045 8.75684C77.3838 8.27051 78.2861 8.02734 79.3115 8.02734C80.6709 8.02734 81.7607 8.4082 82.5811 9.16992C83.4014 9.92578 83.8789 10.9746 84.0137 12.3164H82.3174C82.1709 11.2969 81.8516 10.5586 81.3594 10.1016C80.873 9.64453 80.1904 9.41602 79.3115 9.41602C78.2334 9.41602 77.3867 9.81445 76.7715 10.6113C76.1621 11.4082 75.8574 12.542 75.8574 14.0127V15.252C75.8574 16.6406 76.1475 17.7451 76.7275 18.5654C77.3076 19.3857 78.1191 19.7959 79.1621 19.7959C80.0996 19.7959 80.8174 19.585 81.3154 19.1631C81.8193 18.7354 82.1533 17.9941 82.3174 16.9395H84.0137ZM87.8369 21H86.2109V7.5H87.8369V21ZM96.3184 20.0596C95.6855 20.8037 94.7568 21.1758 93.5322 21.1758C92.5186 21.1758 91.7451 20.8828 91.2119 20.2969C90.6846 19.7051 90.418 18.832 90.4121 17.6777V11.4902H92.0381V17.6338C92.0381 19.0752 92.624 19.7959 93.7959 19.7959C95.0381 19.7959 95.8643 19.333 96.2744 18.4072V11.4902H97.9004V21H96.3535L96.3184 20.0596ZM108.43 16.3506C108.43 17.8037 108.096 18.9727 107.428 19.8574C106.76 20.7363 105.863 21.1758 104.738 21.1758C103.537 21.1758 102.608 20.751 101.952 19.9014L101.873 21H100.379V7.5H102.005V12.5361C102.661 11.7217 103.566 11.3145 104.721 11.3145C105.875 11.3145 106.78 11.751 107.437 12.624C108.099 13.4971 108.43 14.6924 108.43 16.21V16.3506ZM106.804 16.166C106.804 15.0586 106.59 14.2031 106.162 13.5996C105.734 12.9961 105.119 12.6943 104.316 12.6943C103.244 12.6943 102.474 13.1924 102.005 14.1885V18.3018C102.503 19.2979 103.279 19.7959 104.334 19.7959C105.113 19.7959 105.72 19.4941 106.153 18.8906C106.587 18.2871 106.804 17.3789 106.804 16.166Z" fill="white"/>
</svg>
