<svg width="524" height="192" viewBox="0 0 524 192" fill="none" xmlns="http://www.w3.org/2000/svg">
<rect width="524" height="192" rx="12" fill="black"/>
<path d="M172.203 144V92.8125H189.746C195.535 92.8125 199.941 93.9727 202.965 96.293C205.988 98.6133 207.5 102.07 207.5 106.664C207.5 109.008 206.867 111.117 205.602 112.992C204.336 114.867 202.484 116.32 200.047 117.352C202.812 118.102 204.945 119.52 206.445 121.605C207.969 123.668 208.73 126.152 208.73 129.059C208.73 133.863 207.184 137.555 204.09 140.133C201.02 142.711 196.613 144 190.871 144H172.203ZM181.098 120.902V136.898H190.977C193.766 136.898 195.945 136.207 197.516 134.824C199.086 133.441 199.871 131.52 199.871 129.059C199.871 123.738 197.152 121.02 191.715 120.902H181.098ZM181.098 114.363H189.816C192.582 114.363 194.738 113.742 196.285 112.5C197.855 111.234 198.641 109.453 198.641 107.156C198.641 104.625 197.914 102.797 196.461 101.672C195.031 100.547 192.793 99.9844 189.746 99.9844H181.098V114.363ZM215.199 124.629C215.199 120.902 215.938 117.551 217.414 114.574C218.891 111.574 220.965 109.277 223.637 107.684C226.309 106.066 229.379 105.258 232.848 105.258C237.98 105.258 242.141 106.91 245.328 110.215C248.539 113.52 250.273 117.902 250.531 123.363L250.566 125.367C250.566 129.117 249.84 132.469 248.387 135.422C246.957 138.375 244.895 140.66 242.199 142.277C239.527 143.895 236.434 144.703 232.918 144.703C227.551 144.703 223.25 142.922 220.016 139.359C216.805 135.773 215.199 131.004 215.199 125.051V124.629ZM223.742 125.367C223.742 129.281 224.551 132.352 226.168 134.578C227.785 136.781 230.035 137.883 232.918 137.883C235.801 137.883 238.039 136.758 239.633 134.508C241.25 132.258 242.059 128.965 242.059 124.629C242.059 120.785 241.227 117.738 239.562 115.488C237.922 113.238 235.684 112.113 232.848 112.113C230.059 112.113 227.844 113.227 226.203 115.453C224.562 117.656 223.742 120.961 223.742 125.367ZM268.496 96.7148V105.961H275.211V112.289H268.496V133.523C268.496 134.977 268.777 136.031 269.34 136.688C269.926 137.32 270.957 137.637 272.434 137.637C273.418 137.637 274.414 137.52 275.422 137.285V143.895C273.477 144.434 271.602 144.703 269.797 144.703C263.234 144.703 259.953 141.082 259.953 133.84V112.289H253.695V105.961H259.953V96.7148H268.496ZM303.09 133.664C303.09 132.141 302.457 130.98 301.191 130.184C299.949 129.387 297.875 128.684 294.969 128.074C292.062 127.465 289.637 126.691 287.691 125.754C283.426 123.691 281.293 120.703 281.293 116.789C281.293 113.508 282.676 110.766 285.441 108.562C288.207 106.359 291.723 105.258 295.988 105.258C300.535 105.258 304.203 106.383 306.992 108.633C309.805 110.883 311.211 113.801 311.211 117.387H302.668C302.668 115.746 302.059 114.387 300.84 113.309C299.621 112.207 298.004 111.656 295.988 111.656C294.113 111.656 292.578 112.09 291.383 112.957C290.211 113.824 289.625 114.984 289.625 116.438C289.625 117.75 290.176 118.77 291.277 119.496C292.379 120.223 294.605 120.961 297.957 121.711C301.309 122.438 303.934 123.316 305.832 124.348C307.754 125.355 309.172 126.574 310.086 128.004C311.023 129.434 311.492 131.168 311.492 133.207C311.492 136.629 310.074 139.406 307.238 141.539C304.402 143.648 300.688 144.703 296.094 144.703C292.977 144.703 290.199 144.141 287.762 143.016C285.324 141.891 283.426 140.344 282.066 138.375C280.707 136.406 280.027 134.285 280.027 132.012H288.324C288.441 134.027 289.203 135.586 290.609 136.688C292.016 137.766 293.879 138.305 296.199 138.305C298.449 138.305 300.16 137.883 301.332 137.039C302.504 136.172 303.09 135.047 303.09 133.664ZM376.777 127.336C376.262 132.797 374.246 137.062 370.73 140.133C367.215 143.18 362.539 144.703 356.703 144.703C352.625 144.703 349.027 143.742 345.91 141.82C342.816 139.875 340.426 137.121 338.738 133.559C337.051 129.996 336.172 125.859 336.102 121.148V116.367C336.102 111.539 336.957 107.285 338.668 103.605C340.379 99.9258 342.828 97.0898 346.016 95.0977C349.227 93.1055 352.93 92.1094 357.125 92.1094C362.773 92.1094 367.32 93.6445 370.766 96.7148C374.211 99.7852 376.215 104.121 376.777 109.723H367.918C367.496 106.043 366.418 103.395 364.684 101.777C362.973 100.137 360.453 99.3164 357.125 99.3164C353.258 99.3164 350.281 100.734 348.195 103.57C346.133 106.383 345.078 110.52 345.031 115.98V120.516C345.031 126.047 346.016 130.266 347.984 133.172C349.977 136.078 352.883 137.531 356.703 137.531C360.195 137.531 362.82 136.746 364.578 135.176C366.336 133.605 367.449 130.992 367.918 127.336H376.777ZM393.02 144H384.477V90H393.02V144ZM425.398 140.273C422.891 143.227 419.328 144.703 414.711 144.703C410.586 144.703 407.457 143.496 405.324 141.082C403.215 138.668 402.16 135.176 402.16 130.605V105.961H410.703V130.5C410.703 135.328 412.707 137.742 416.715 137.742C420.863 137.742 423.664 136.254 425.117 133.277V105.961H433.66V144H425.609L425.398 140.273ZM475.742 125.367C475.742 131.273 474.418 135.973 471.77 139.465C469.145 142.957 465.523 144.703 460.906 144.703C456.453 144.703 452.984 143.098 450.5 139.887L450.078 144H442.344V90H450.887V109.617C453.348 106.711 456.664 105.258 460.836 105.258C465.477 105.258 469.121 106.98 471.77 110.426C474.418 113.871 475.742 118.688 475.742 124.875V125.367ZM467.199 124.629C467.199 120.504 466.473 117.41 465.02 115.348C463.566 113.285 461.457 112.254 458.691 112.254C454.988 112.254 452.387 113.871 450.887 117.105V132.785C452.41 136.09 455.035 137.742 458.762 137.742C461.434 137.742 463.496 136.746 464.949 134.754C466.402 132.762 467.152 129.75 467.199 125.719V124.629Z" fill="white"/>
<path d="M186.75 59.0469C185.927 60.1198 184.786 60.9323 183.328 61.4844C181.87 62.0365 180.214 62.3125 178.359 62.3125C176.453 62.3125 174.766 61.8802 173.297 61.0156C171.828 60.151 170.693 58.9167 169.891 57.3125C169.099 55.6979 168.688 53.8177 168.656 51.6719V49.8906C168.656 46.4531 169.479 43.7708 171.125 41.8438C172.771 39.9062 175.068 38.9375 178.016 38.9375C180.547 38.9375 182.557 39.5625 184.047 40.8125C185.536 42.0625 186.432 43.8646 186.734 46.2188H182.859C182.422 43.4792 180.833 42.1094 178.094 42.1094C176.323 42.1094 174.974 42.75 174.047 44.0312C173.13 45.3021 172.656 47.1719 172.625 49.6406V51.3906C172.625 53.849 173.141 55.7604 174.172 57.125C175.214 58.4792 176.656 59.1562 178.5 59.1562C180.521 59.1562 181.958 58.6979 182.812 57.7812V53.3281H178.125V50.3281H186.75V59.0469ZM204.391 51.8438H195.047V58.8438H205.969V62H191.094V39.25H205.859V42.4375H195.047V48.7188H204.391V51.8438ZM225.938 42.4375H218.844V62H214.922V42.4375H207.891V39.25H225.938V42.4375ZM241.094 39.25L247.656 56.6875L254.203 39.25H259.312V62H255.375V54.5L255.766 44.4688L249.047 62H246.219L239.516 44.4844L239.906 54.5V62H235.969V39.25H241.094ZM277.297 51.8438H267.953V58.8438H278.875V62H264V39.25H278.766V42.4375H267.953V48.7188H277.297V51.8438ZM294.234 62H290.297V39.25H294.234V62ZM317.141 62H313.188L303.047 45.8594V62H299.094V39.25H303.047L313.219 55.4531V39.25H317.141V62Z" fill="white"/>
<path d="M127.275 91.5487H124.7V86.3987C124.7 82.3011 123.072 78.3713 120.175 75.4739C117.277 72.5764 113.348 70.9487 109.25 70.9487H88.65V59.2201C90.6136 58.0864 92.1483 56.3364 93.016 54.2416C93.8837 52.1469 94.0359 49.8243 93.449 47.6342C92.8622 45.444 91.5691 43.5088 89.7702 42.1285C87.9714 40.7482 85.7674 40 83.5 40C81.2326 40 79.0286 40.7482 77.2298 42.1285C75.4309 43.5088 74.1378 45.444 73.551 47.6342C72.9641 49.8243 73.1164 52.1469 73.984 54.2416C74.8517 56.3364 76.3864 58.0864 78.35 59.2201V70.9487H57.75C53.6524 70.9487 49.7226 72.5764 46.8252 75.4739C43.9278 78.3713 42.3 82.3011 42.3 86.3987V91.5487H39.725C37.6762 91.5487 35.7113 92.3625 34.2626 93.8113C32.8139 95.26 32 97.2249 32 99.2737C32 101.322 32.8139 103.287 34.2626 104.736C35.7113 106.185 37.6762 106.999 39.725 106.999H42.3V112.149C42.3 116.246 43.9278 120.176 46.8252 123.073C49.7226 125.971 53.6524 127.599 57.75 127.599H109.25C113.348 127.599 117.277 125.971 120.175 123.073C123.072 120.176 124.7 116.246 124.7 112.149V106.999H127.275C129.324 106.999 131.289 106.185 132.737 104.736C134.186 103.287 135 101.322 135 99.2737C135 97.2249 134.186 95.26 132.737 93.8113C131.289 92.3625 129.324 91.5487 127.275 91.5487ZM73.2 99.2737C73.2 100.802 72.7469 102.295 71.8981 103.565C71.0493 104.836 69.8428 105.826 68.4312 106.411C67.0197 106.995 65.4664 107.148 63.9679 106.85C62.4694 106.552 61.093 105.816 60.0126 104.736C58.9322 103.656 58.1965 102.279 57.8984 100.781C57.6004 99.2822 57.7533 97.729 58.338 96.3174C58.9227 94.9059 59.9128 93.6994 61.1832 92.8506C62.4536 92.0017 63.9471 91.5487 65.475 91.5487C67.5238 91.5487 69.4887 92.3625 70.9374 93.8113C72.3861 95.26 73.2 97.2249 73.2 99.2737ZM109.25 99.2737C109.25 100.802 108.797 102.295 107.948 103.565C107.099 104.836 105.893 105.826 104.481 106.411C103.07 106.995 101.516 107.148 100.018 106.85C98.5194 106.552 97.143 105.816 96.0626 104.736C94.9822 103.656 94.2465 102.279 93.9484 100.781C93.6504 99.2822 93.8033 97.729 94.388 96.3174C94.9727 94.9059 95.9629 93.6994 97.2332 92.8506C98.5036 92.0017 99.9971 91.5487 101.525 91.5487C103.574 91.5487 105.539 92.3625 106.987 93.8113C108.436 95.26 109.25 97.2249 109.25 99.2737Z" fill="white"/>
</svg>
