<svg width="12" height="12" viewBox="0 0 12 12" fill="none" xmlns="http://www.w3.org/2000/svg">
<path fill-rule="evenodd" clip-rule="evenodd" d="M6 11.5C2.96243 11.5 0.5 9.03757 0.5 6C0.5 2.96243 2.96243 0.5 6 0.5C9.03757 0.5 11.5 2.96243 11.5 6C11.5 9.03757 9.03757 11.5 6 11.5ZM6 10.5C8.48528 10.5 10.5 8.48528 10.5 6C10.5 3.51472 8.48528 1.5 6 1.5C3.51472 1.5 1.5 3.51472 1.5 6C1.5 8.48528 3.51472 10.5 6 10.5ZM4.35355 8.35355L5.99999 6.70711L7.64644 8.35355L8.35355 7.64645L6.7071 6L8.35355 4.35355L7.64644 3.64645L5.99999 5.29289L4.35355 3.64645L3.64644 4.35355L5.29289 6L3.64644 7.64645L4.35355 8.35355Z" fill="#EB5757"/>
</svg>
