<svg width="10" height="11" viewBox="0 0 10 11" fill="none" xmlns="http://www.w3.org/2000/svg">
<path fill-rule="evenodd" clip-rule="evenodd" d="M7.21868 0C7.54604 0 7.85986 0.13071 8.08905 0.361711L9.6395 1.91216C9.87034 2.143 10 2.45608 10 2.78254C10 3.109 9.87034 3.42208 9.6395 3.65292L3.97875 9.31188C3.62951 9.71475 3.13445 9.96227 2.5673 10.0012H0V9.50116L0.00162382 7.39365C0.0442191 6.86642 0.289333 6.37617 0.663248 6.04671L6.34769 0.362314C6.5782 0.130415 6.89168 0 7.21868 0ZM2.53199 9.00241C2.7991 8.9835 3.04774 8.85919 3.2474 8.63081L7.02835 4.84985L5.15116 2.97259L1.34805 6.77479C1.14548 6.95396 1.02015 7.20462 1 7.43391V9.00147L2.53199 9.00241ZM5.85836 2.26557L7.73546 4.14275L8.9324 2.94581C8.9757 2.90251 9.00003 2.84378 9.00003 2.78254C9.00003 2.7213 8.9757 2.66257 8.9324 2.61927L7.38056 1.06743C7.33774 1.02427 7.27947 1 7.21868 1C7.15788 1 7.09961 1.02427 7.05679 1.06743L5.85836 2.26557Z" fill="#828282"/>
</svg>
