<svg width="12" height="12" viewBox="0 0 12 12" fill="none" xmlns="http://www.w3.org/2000/svg">
<path fill-rule="evenodd" clip-rule="evenodd" d="M6 11.5C2.96243 11.5 0.5 9.03757 0.5 6C0.5 2.96243 2.96243 0.5 6 0.5C9.03757 0.5 11.5 2.96243 11.5 6C11.5 9.03757 9.03757 11.5 6 11.5ZM9.69974 8.56231C10.2043 7.83515 10.5 6.95211 10.5 6C10.5 3.51472 8.48527 1.5 5.99999 1.5C3.51471 1.5 1.49999 3.51472 1.49999 6C1.49999 6.95212 1.79568 7.83517 2.30025 8.56234C2.86297 7.81904 4.1853 7.5 6 7.5C7.81469 7.5 9.13702 7.81903 9.69974 8.56231ZM8.98234 9.36987C8.83598 8.84367 7.78468 8.5 6 8.5C4.21531 8.5 3.164 8.84368 3.01766 9.36989C3.81165 10.0731 4.85597 10.5 5.99999 10.5C7.14403 10.5 8.18835 10.0731 8.98234 9.36987ZM6.00001 3C4.78956 3 4.00001 3.87788 4.00001 5C4.00001 6.71369 4.88044 7.5 6.00001 7.5C7.10905 7.5 8.00001 6.73981 8.00001 5.1C8.00001 3.96079 7.20711 3 6.00001 3ZM5 5C5 6.13463 5.40911 6.5 6 6.5C6.58885 6.5 7 6.1492 7 5.1C7 4.47521 6.60783 4 6 4C5.36687 4 5 4.40791 5 5Z" fill="white"/>
</svg>
