<svg width="12" height="12" viewBox="0 0 12 12" fill="none" xmlns="http://www.w3.org/2000/svg">
<path fill-rule="evenodd" clip-rule="evenodd" d="M6 0.5C9.03757 0.5 11.5 2.96243 11.5 6C11.5 9.03757 9.03757 11.5 6 11.5C2.96243 11.5 0.5 9.03757 0.5 6C0.5 2.96243 2.96243 0.5 6 0.5ZM1.53283 5.4537C1.6786 5.64027 2.08391 5.87899 2.70414 6.07376C2.94834 6.15044 3.2158 6.21786 3.50278 6.27511C3.50093 6.18394 3.5 6.09222 3.5 6C3.5 4.33618 3.80278 2.83365 4.32727 1.82116C2.83206 2.42021 1.73314 3.7985 1.53283 5.4537ZM3.56457 7.30541C2.76167 7.16585 2.07322 6.95464 1.55149 6.68289C1.79419 8.27709 2.87339 9.59634 4.32727 10.1788C3.94433 9.4396 3.67958 8.43915 3.56457 7.30541ZM4.58946 7.43866C5.03801 7.47907 5.51045 7.5 6.00001 7.5C6.48167 7.5 6.95623 7.4727 7.41264 7.42207C7.18711 9.22085 6.5635 10.5 6 10.5C5.43824 10.5 4.81674 9.22872 4.58946 7.43866ZM7.49315 6.40225C7.01838 6.46375 6.51403 6.5 6.00001 6.5C5.47789 6.5 4.97671 6.47414 4.50766 6.42511C4.50261 6.28528 4.5 6.14348 4.5 6C4.5 3.492 5.29681 1.5 6 1.5C6.7032 1.5 7.5 3.492 7.5 6C7.5 6.13567 7.49767 6.26984 7.49315 6.40225ZM8.43962 7.26344C8.32693 8.41445 8.06038 9.4305 7.67272 10.1788C9.15228 9.58607 10.2438 8.23029 10.4606 6.59821C9.93051 6.87393 9.23236 7.10448 8.43962 7.26344ZM10.4643 5.43007C10.229 5.69416 9.48684 6.00787 8.49811 6.22706C8.49937 6.15173 8.5 6.07604 8.5 6C8.5 4.33618 8.19722 2.83365 7.67272 1.82115C9.16082 2.41735 10.2564 3.78538 10.4643 5.43007Z" fill="white"/>
</svg>
