<svg width="16" height="16" viewBox="0 0 16 16" fill="none" xmlns="http://www.w3.org/2000/svg">
<path fill-rule="evenodd" clip-rule="evenodd" d="M0.666687 8.00008C0.666687 12.0502 3.94993 15.3334 8.00002 15.3334C12.0501 15.3334 15.3334 12.0502 15.3334 8.00008C15.3334 3.94999 12.0501 0.666748 8.00002 0.666748C3.94993 0.666748 0.666687 3.94999 0.666687 8.00008ZM14 8.00008C14 11.3138 11.3137 14.0001 8.00002 14.0001C4.68631 14.0001 2.00002 11.3138 2.00002 8.00008C2.00002 4.68637 4.68631 2.00008 8.00002 2.00008C11.3137 2.00008 14 4.68637 14 8.00008ZM8.00024 11.3323C8.36855 11.3323 8.66713 11.0339 8.66713 10.6657C8.66713 10.2975 8.36855 9.999 8.00024 9.999C7.63193 9.999 7.33335 10.2975 7.33335 10.6657C7.33335 11.0339 7.63193 11.3323 8.00024 11.3323ZM7.33335 9.33341H8.66669C8.66669 8.80118 8.7503 8.70363 9.29816 8.4297C10.2503 7.95363 10.6667 7.46785 10.6667 6.33341C10.6667 4.8805 9.52292 4.00008 8.00002 4.00008C6.52726 4.00008 5.33335 5.19399 5.33335 6.66675H6.66669C6.66669 5.93037 7.26364 5.33341 8.00002 5.33341C8.85146 5.33341 9.33335 5.70435 9.33335 6.33341C9.33335 6.86565 9.24974 6.9632 8.70188 7.23713C7.74974 7.7132 7.33335 8.19898 7.33335 9.33341Z" fill="#BDBDBD"/>
</svg>
