<svg width="16" height="16" viewBox="0 0 16 16" fill="none" xmlns="http://www.w3.org/2000/svg">
<path fill-rule="evenodd" clip-rule="evenodd" d="M0 8C0 12.4183 3.58172 16 8 16C12.4183 16 16 12.4183 16 8C16 3.58172 12.4183 0 8 0C3.58172 0 0 3.58172 0 8ZM14.5455 8C14.5455 11.615 11.615 14.5455 8 14.5455C4.38505 14.5455 1.45455 11.615 1.45455 8C1.45455 4.38505 4.38505 1.45455 8 1.45455C11.615 1.45455 14.5455 4.38505 14.5455 8ZM8.7299 9.45312H9.45669V10.9077H6.5476V9.45312H7.27487V7.99858H6.5476V6.54403H8.7299V9.45312ZM8.72775 5.08949C8.72775 5.49115 8.40203 5.81676 8.00024 5.81676C7.59845 5.81676 7.27273 5.49115 7.27273 5.08949C7.27273 4.68783 7.59845 4.36222 8.00024 4.36222C8.40203 4.36222 8.72775 4.68783 8.72775 5.08949Z" fill="#BDBDBD"/>
</svg>
