<svg width="14" height="14" viewBox="0 0 14 14" fill="none" xmlns="http://www.w3.org/2000/svg">
<path fill-rule="evenodd" clip-rule="evenodd" d="M5.66671 11C2.72119 11 0.333374 8.61217 0.333374 5.66665C0.333374 2.72113 2.72119 0.333313 5.66671 0.333313C8.61223 0.333313 11 2.72113 11 5.66665C11 6.89912 10.582 8.03395 9.87995 8.93707L13.4715 12.5286L12.5287 13.4714L8.93715 9.87988C8.03402 10.5819 6.89919 11 5.66671 11ZM9.66671 5.66665C9.66671 7.87579 7.87585 9.66665 5.66671 9.66665C3.45757 9.66665 1.66671 7.87579 1.66671 5.66665C1.66671 3.45751 3.45757 1.66665 5.66671 1.66665C7.87585 1.66665 9.66671 3.45751 9.66671 5.66665Z" fill="#F2F2F2"/>
</svg>
