<svg width="88" height="16" viewBox="0 0 88 16" fill="none" xmlns="http://www.w3.org/2000/svg">
<path fill-rule="evenodd" clip-rule="evenodd" d="M8.00001 12.7532L3.19602 15.2788L4.1135 9.92949L0.22699 6.14108L5.59801 5.36063L8.00001 0.493652L10.402 5.36063L15.773 6.14108L11.8865 9.92949L12.804 15.2788L8.00001 12.7532Z" fill="#FF6E40"/>
<path fill-rule="evenodd" clip-rule="evenodd" d="M26 12.7532L21.196 15.2788L22.1135 9.92949L18.227 6.14108L23.598 5.36063L26 0.493652L28.402 5.36063L33.773 6.14108L29.8865 9.92949L30.804 15.2788L26 12.7532Z" fill="#FF6E40"/>
<path fill-rule="evenodd" clip-rule="evenodd" d="M44 12.7532L39.196 15.2788L40.1135 9.92949L36.227 6.14108L41.598 5.36063L44 0.493652L46.402 5.36063L51.773 6.14108L47.8865 9.92949L48.804 15.2788L44 12.7532Z" fill="#FF6E40"/>
<path fill-rule="evenodd" clip-rule="evenodd" d="M62 12.7532L57.196 15.2788L58.1135 9.92949L54.227 6.14108L59.598 5.36063L62 0.493652L64.402 5.36063L69.773 6.14108L65.8865 9.92949L66.804 15.2788L62 12.7532Z" fill="#FF6E40"/>
<path fill-rule="evenodd" clip-rule="evenodd" d="M80 12.7532L75.196 15.2788L76.1135 9.92949L72.227 6.14108L77.598 5.36063L80 0.493652L82.402 5.36063L87.773 6.14108L83.8865 9.92949L84.804 15.2788L80 12.7532Z" fill="#FF6E40"/>
</svg>
