<svg width="16" height="16" viewBox="0 0 16 16" fill="none" xmlns="http://www.w3.org/2000/svg">
<g id="24 / basic / thumbs-up">
<path id="icon" fill-rule="evenodd" clip-rule="evenodd" d="M14.6667 7.99943C14.6667 6.87778 13.9131 5.99943 12.6667 5.99943H10.618L10.6365 5.94895C10.6551 5.89883 10.7073 5.76121 10.758 5.62754L10.7582 5.62699C10.803 5.50887 10.8466 5.39395 10.8647 5.34537C10.9915 5.00513 11.084 4.731 11.1588 4.45952C11.2719 4.04919 11.3333 3.6795 11.3333 3.33276C11.3333 2.35143 10.7279 1.74191 9.8322 1.48109C9.4282 1.36345 9.07654 1.3327 8.66668 1.33276H8.34701L8.14686 1.58202C7.92076 1.86359 7.47667 2.37105 6.96468 2.9561L6.96468 2.9561L6.96465 2.95613C6.02017 4.03539 4.84463 5.37867 4.38026 6.05501C4.25976 6.01922 4.13213 6 4.00001 6H2.66668C1.9303 6 1.33334 6.59695 1.33334 7.33333V13.3333C1.33334 14.0697 1.9303 14.6667 2.66668 14.6667H4.00001C4.45809 14.6667 4.86221 14.4357 5.10224 14.0838C5.30449 14.2146 5.53015 14.3238 5.77543 14.4115C6.33697 14.6125 6.89391 14.6742 7.35628 14.6657L12 14.6661C13.8368 14.6661 14.6667 11.9618 14.6667 7.99943ZM6.22459 13.1561C5.63465 12.9451 5.33334 12.6009 5.33334 11.9994V7.33333V7.33276C5.33334 7.17263 5.36296 7.03083 5.42782 6.87942C5.54431 6.60743 6.6013 5.40152 7.60312 4.25855L7.60315 4.25851C8.12019 3.66862 8.62254 3.0955 8.97332 2.67618C9.14094 2.68875 9.29893 2.71451 9.45943 2.76125C9.84146 2.87249 10 3.03211 10 3.33276C10 3.54382 9.9573 3.80097 9.87344 4.10517C9.81078 4.33248 9.72962 4.57301 9.61529 4.87987C9.5991 4.92333 9.55876 5.02966 9.51581 5.14285L9.51553 5.1436C9.46307 5.28187 9.4068 5.43018 9.38598 5.48646C9.29929 5.72087 9.24218 5.89347 9.20311 6.0503C9.03703 6.717 9.20365 7.33276 10 7.33276H12.6667C13.1275 7.33276 13.3333 7.57269 13.3333 7.99943C13.3333 11.1933 12.6768 13.3328 12 13.3328H7.33334L7.30872 13.3332C7.01693 13.3384 6.60709 13.293 6.22459 13.1561ZM2.66668 13.3333V7.33333H4.00001V13.3333H2.66668Z" fill="#333333"/>
</g>
</svg>
