<svg width="11" height="10" viewBox="0 0 11 10" fill="none" xmlns="http://www.w3.org/2000/svg">
<path fill-rule="evenodd" clip-rule="evenodd" d="M4 0.792908L8.20711 5.00001L4 9.20712V6.91692C2.97778 6.80446 1.93815 7.26897 0.853553 8.35357L0 9.20712V8.00001C0 4.92536 1.36946 3.20646 4 3.01748V0.792908ZM5 3.20712V4.00001H4.5C2.48898 4.00001 1.37523 4.90501 1.0802 6.84125C2.23692 6.0009 3.42363 5.71553 4.62127 6.01494L5 6.10962V6.79291L6.79289 5.00001L5 3.20712ZM6 0.792908V2.29291L8.70711 5.00001L6 7.70712V9.20712L10.2071 5.00001L6 0.792908Z" fill="#828282"/>
</svg>
