<svg width="30" height="23" viewBox="0 0 30 23" fill="none" xmlns="http://www.w3.org/2000/svg">
<path fill-rule="evenodd" clip-rule="evenodd" d="M21.6666 17.6668V20.3335H23C26.6819 20.3335 29.6666 17.3487 29.6666 13.6668C29.6666 10.3134 27.1907 7.53833 23.9672 7.06982C22.8333 3.14099 19.2115 0.333496 15 0.333496C11.8712 0.333496 9.012 1.88693 7.29317 4.40053C3.35602 4.91144 0.333313 8.27852 0.333313 12.3335C0.333313 16.7518 3.91503 20.3335 8.33331 20.3335V17.6668C5.38779 17.6668 2.99998 15.279 2.99998 12.3335C2.99998 9.46742 5.26577 7.11637 8.11952 7.00435L8.85419 6.97551L9.22187 6.33881C10.4057 4.28873 12.5898 3.00016 15 3.00016C18.2681 3.00016 21.0404 5.36851 21.5746 8.55504L21.765 9.69106L22.9166 9.66768C22.9582 9.66697 22.9582 9.66697 23 9.66683C25.2091 9.66683 27 11.4577 27 13.6668C27 15.876 25.2091 17.6668 23 17.6668H21.6666ZM16.3333 23.0002V14.2192L19.3905 17.2764L21.2761 15.3907L15 9.11459L8.72384 15.3907L10.6095 17.2764L13.6667 14.2192V23.0002H16.3333Z" fill="#E0E0E0"/>
</svg>
